<?xml version="1.0" encoding="UTF-8" standalone="no"?>
<svg
   xmlns:dc="http://purl.org/dc/elements/1.1/"
   xmlns:cc="http://creativecommons.org/ns#"
   xmlns:rdf="http://www.w3.org/1999/02/22-rdf-syntax-ns#"
   xmlns:svg="http://www.w3.org/2000/svg"
   xmlns="http://www.w3.org/2000/svg"
   xmlns:sodipodi="http://sodipodi.sourceforge.net/DTD/sodipodi-0.dtd"
   xmlns:inkscape="http://www.inkscape.org/namespaces/inkscape"
   sodipodi:docname="people-vs-computers.svg"
   inkscape:version="0.91+devel+osxmenu r12922"
   id="svg4141"
   version="1.2"
   viewBox="0 0 342.74286 328.44647"
   height="437.92862"
   width="456.99048">
  <sodipodi:namedview
     inkscape:current-layer="svg4141"
     inkscape:window-maximized="0"
     inkscape:window-y="23"
     inkscape:window-x="0"
     inkscape:cy="264.07638"
     inkscape:cx="296.95214"
     inkscape:zoom="1.416892"
     showgrid="false"
     id="namedview4552"
     inkscape:window-height="855"
     inkscape:window-width="1440"
     inkscape:pageshadow="2"
     inkscape:pageopacity="0"
     guidetolerance="10"
     gridtolerance="10"
     objecttolerance="10"
     borderopacity="1"
     bordercolor="#666666"
     pagecolor="#ffffff"
     inkscape:snap-global="true"
     inkscape:snap-grids="false"
     inkscape:snap-others="true"
     inkscape:snap-smooth-nodes="true"
     fit-margin-top="0"
     fit-margin-left="0"
     fit-margin-right="0"
     fit-margin-bottom="0"
     units="px"
     showborder="false"
     inkscape:snap-nodes="true"
     inkscape:object-paths="true">
    <inkscape:grid
       originy="-120.96825"
       originx="-76.070012"
       units="mm"
       empspacing="1"
       type="axonomgrid"
       id="grid8854"
       empcolor="#ff00ff"
       empopacity="0.08235294"
       color="#ff00ff"
       opacity="0.21568627" />
  </sodipodi:namedview>
  <metadata
     id="metadata4556">
    <rdf:RDF>
      <cc:Work
         rdf:about="">
        <dc:format>image/svg+xml</dc:format>
        <dc:type
           rdf:resource="http://purl.org/dc/dcmitype/StillImage" />
        <dc:title></dc:title>
      </cc:Work>
    </rdf:RDF>
  </metadata>
  <defs
     id="defs4554" />
  <g
     transform="translate(-76.070013,-342.58526)"
     id="g4792">
    <g
       id="g5388">
      <path
         inkscape:connector-curvature="0"
         id="path4178"
         d="m 160.1875,558.89062 0,-7.74218 151.33203,87.57812 0,9.51172 -151.33203,-88.91016 0,-0.4375"
         style="fill:#949494;fill-opacity:1;fill-rule:nonzero;stroke:none" />
      <g
         id="g9316">
        <path
           style="fill:#bebebe;fill-opacity:1;fill-rule:nonzero;stroke:none"
           d="m 220.70703,462.27734 -1.64062,6.56641 c -15.67969,9.55469 -72.19922,43.85156 -72.19922,43.85156 l -0.0234,0 c -0.54297,-1.59375 -0.41406,-4.52734 0.52344,-5.90234 l 73.33984,-44.51563"
           id="path4154"
           inkscape:connector-curvature="0" />
        <path
           style="fill:#f8f8f8;fill-opacity:1;fill-rule:nonzero;stroke:none"
           d="m 146.86719,507.09766 0.5,-0.30469 c -0.9375,1.375 -1.06641,4.30859 -0.52344,5.90234 l -17.25391,-10.43359 c 0,0 -3.08593,-3.10547 0.0859,-5.55469 l 17.19141,10.39063"
           id="path4156"
           inkscape:connector-curvature="0" />
        <path
           style="fill:#f2f2f2;fill-opacity:1;fill-rule:nonzero;stroke:none"
           d="m 146.86719,512.69531 0,0.043 -0.35157,54.22266 -16.92578,-9.77735 0,-54.92187 17.25391,10.43359 0.0234,0"
           id="path4166"
           inkscape:connector-curvature="0" />
        <path
           style="fill:#dedede;fill-opacity:1;fill-rule:nonzero;stroke:none"
           d="m 147.36719,506.79297 -0.5,0.30469 -17.19141,-10.39063 c 0.21484,-0.19531 0.48047,-0.37109 0.78516,-0.54687 0.0234,0 0.0234,-0.0195 0.043,-0.0195 l 76.62109,-43.59375 14.14844,7.3711 -0.56641,2.35937 -73.33984,44.51563"
           id="path4168"
           inkscape:connector-curvature="0" />
        <path
           style="fill:#dcdcdc;fill-opacity:1;fill-rule:nonzero;stroke:none"
           d="m 219.06641,468.84375 -6.27735,25.50391 -59.05469,34.09765 0,18.96485 6.45313,3.73828 0,7.74218 c -8.07031,4.76954 -13.67188,8.07032 -13.67188,8.07032 l 0.35157,-54.22266 0,-0.043 c 0,0 56.51953,-34.29687 72.19922,-43.85156"
           id="path4180"
           inkscape:connector-curvature="0" />
      </g>
      <path
         inkscape:connector-curvature="0"
         id="path4182"
         d="m 407.0625,504.01172 -13.01563,55.18359 -4.98828,-2.57812 -13.60547,7.74218 14.28516,-57.78906 15.67969,-3.51953 1.64453,0.96094"
         style="fill:#d7d7d7;fill-opacity:1;fill-rule:nonzero;stroke:none" />
      <path
         inkscape:connector-curvature="0"
         id="path4184"
         d="m 405.41797,503.05078 -15.67969,3.51953 0.21875,-0.85156 -157.48437,-91.18359 0.23828,-0.41797 17.19531,-1.81641 155.51172,90.75"
         style="fill:#c3c3c3;fill-opacity:1;fill-rule:nonzero;stroke:none"
         sodipodi:nodetypes="ccccccc" />
      <path
         inkscape:connector-curvature="0"
         id="path4188"
         d="m 389.73828,506.57031 -14.28516,57.78906 -20.84375,11.85547 -141.82031,-81.86718 6.27735,-25.50391 1.64062,-6.56641 0.56641,-2.35937 11.19922,-45.38281 1.77343,1.02734 155.71094,90.15625 -0.21875,0.85156"
         style="fill:#e5e5e5;fill-opacity:1;fill-rule:nonzero;stroke:none"
         sodipodi:nodetypes="ccccccccccc" />
      <path
         inkscape:connector-curvature="0"
         id="path4190"
         d="m 354.60937,576.21484 -42.16796,23.99219 c -0.0234,0 -0.0234,0.0234 -0.0469,0.0234 l -0.875,0.5039 0.0859,0.043 c -3.14453,2.44922 -0.0859,5.55469 -0.0859,5.55469 l 0,12.86328 -0.30469,0.17188 -157.48047,-90.92188 59.05469,-34.09765 141.82031,81.86718"
         style="fill:#d7d7d7;fill-opacity:1;fill-rule:nonzero;stroke:none" />
      <g
         id="g9339">
        <path
           inkscape:connector-curvature="0"
           id="path4158"
           transform="scale(0.75)"
           d="m 415.47461,801.03711 c -4.19265,3.26563 -0.11523,7.40625 -0.11523,7.40625 l 14.52539,8.78125 8.48437,5.12891 c -0.72916,-2.15624 -0.55078,-6.0931 0.73047,-7.9004 l -0.69922,0.4375 -2.21289,-1.34374 -20.71289,-12.50977 z"
           style="fill:#f8f8f8;fill-opacity:1;fill-rule:nonzero;stroke:none;stroke-width:1.33333337" />
        <path
           inkscape:connector-curvature="0"
           id="path4162"
           transform="scale(0.75)"
           d="m 539.85938,753.32812 -19.01563,11.51563 -81.74414,49.60937 c -1.28125,1.8073 -1.45963,5.74416 -0.73047,7.9004 l 0.0312,0 80.40234,-48.79102 16.59375,-10.08789 4.64063,-2.79688 c 0,0 2.06705,-4.96418 -0.17773,-7.34961 z"
           style="fill:#bebebe;fill-opacity:1;fill-rule:nonzero;stroke:none;stroke-width:1.33333337" />
        <path
           inkscape:connector-curvature="0"
           id="path4170"
           transform="scale(0.75)"
           d="m 518.74414,742.15625 -18.14062,10.32227 -27.79102,15.80859 -56.22461,31.98828 c -0.0313,0 -0.0313,0.0312 -0.0625,0.0312 -0.40625,0.22916 -0.75391,0.46484 -1.05078,0.73047 l 20.71289,12.50977 2.21289,1.34374 0.69922,-0.4375 81.74414,-49.60937 19.01563,-11.51563 c -0.23438,-0.26562 -0.52604,-0.4694 -0.875,-0.67773 -0.0313,0 -0.0313,-0.0254 -0.0625,-0.0254 l -13.5254,-7.03125 -6.65234,-3.4375 z"
           style="fill:#dedede;fill-opacity:1;fill-rule:nonzero;stroke:none;stroke-width:1.33333337" />
        <path
           style="fill:#dcdcdc;fill-opacity:1;fill-rule:nonzero;stroke:none"
           d="m 389.10156,580.17187 12.44531,-7.5664 0,55.22656 -73.07421,43.19922 0.32812,-54.22266 0,-0.043 60.30078,-36.59375"
           id="path4186"
           inkscape:connector-curvature="0" />
        <path
           inkscape:connector-curvature="0"
           id="path4192"
           transform="scale(0.75)"
           d="m 415.35938,808.44336 0,17.15039 0,56.07813 22.60351,13.0371 0.4375,-72.29687 0,-0.0586 -0.0312,0 -8.48437,-5.12891 -14.52539,-8.78125 z"
           style="fill:#f2f2f2;fill-opacity:1;fill-rule:nonzero;stroke:none;stroke-width:1.33333337" />
      </g>
      <path
         inkscape:connector-curvature="0"
         id="path4196"
         d="m 160.1875,551.14844 -6.45313,-3.73828 0,-18.96485 157.48047,90.92188 0.30469,-0.17188 0,19.53125 -151.33203,-87.57812"
         style="fill:#f0f0f0;fill-opacity:1;fill-rule:nonzero;stroke:none" />
    </g>
    <g
       id="g9323">
      <path
         inkscape:connector-curvature="0"
         id="path4198"
         d="m 316.375,577.56641 c 0.19141,0.7539 0.44531,1.25 0.67578,1.78125 l -17.22656,10.67578 c -0.36719,-1.03516 -0.73047,-2.39063 -0.875,-3.8711 -0.17188,-1.78906 0.14062,-3.40234 0.45312,-4.50781 l -0.043,-0.0742 17.35157,-10.40234 c -0.27735,1.09765 -0.61328,1.99609 -0.62891,3.13281 -0.0156,1.52734 0.10156,2.52344 0.29297,3.26563"
         style="fill:#ffffff;fill-opacity:1;fill-rule:nonzero;stroke:none" />
      <path
         inkscape:connector-curvature="0"
         id="path4200"
         d="m 298.80859,580.67578 20.75782,-12.44922 c 0.19921,0.70703 -0.14454,1.31641 -0.14454,1.31641 l -2.71093,1.625 -17.35157,10.40234 -0.70312,0.42578 -0.30859,-0.12109 c 0.23828,-0.75781 0.46093,-1.19922 0.46093,-1.19922"
         style="fill:#ffffff;fill-opacity:1;fill-rule:nonzero;stroke:none" />
      <path
         inkscape:connector-curvature="0"
         id="path4202"
         d="m 300.24609,591.12891 c 4.52344,-2.71094 19.47266,-11.6836 19.47266,-11.6836 0.19922,0.70703 -0.14063,1.32031 -0.14063,1.32031 l -19.98828,11.9961 -0.0351,-0.0586 0.004,-0.008 c 0,0 -1.4375,-2.67969 -1.7539,-6.0039 -0.1875,-1.96875 0.19922,-3.71875 0.54297,-4.81641 l 0.30859,0.12109 0.70312,-0.42578 0.043,0.0742 c -0.3125,1.10547 -0.625,2.71875 -0.45312,4.50781 0.14453,1.48047 0.50781,2.83594 0.875,3.8711 0.14453,0.42578 0.29297,0.79687 0.42187,1.10547"
         style="fill:#ffffff;fill-opacity:1;fill-rule:nonzero;stroke:none" />
      <g
         id="g6613">
        <path
           style="fill:#bcbcbc;fill-opacity:1;fill-rule:nonzero;stroke:none"
           d="m 316.375,577.56641 c 2.05469,1.15234 3.34375,1.8789 3.34375,1.8789 0,0 -14.94922,8.97266 -19.47266,11.6836 -0.1289,-0.3086 -0.27734,-0.67969 -0.42187,-1.10547 l 17.22656,-10.67578 c -0.23047,-0.53125 -0.48437,-1.02735 -0.67578,-1.78125"
           id="path4204"
           inkscape:connector-curvature="0" />
        <path
           style="fill:#c5c5c5;fill-opacity:1;fill-rule:nonzero;stroke:none"
           d="m 297.80469,586.69141 c 0.3164,3.32421 1.7539,6.0039 1.7539,6.0039 l -0.004,0.008 c -0.29297,0.52344 -30.82032,-17.32031 -30.82032,-17.32031 0,0 -1.33593,-1.98047 -1.33203,-5.26953 0.0156,-3.29297 1.78516,-6.06641 1.78516,-6.06641 l 29.62109,16.62891 c 0,0 -0.22265,0.44141 -0.46093,1.19922 -0.34375,1.09766 -0.73047,2.84766 -0.54297,4.81641"
           id="path4206"
           inkscape:connector-curvature="0" />
        <path
           style="fill:#cecece;fill-opacity:1;fill-rule:nonzero;stroke:none"
           d="m 298.80859,580.67578 -29.62109,-16.62891 20.86328,-12.40625 29.51563,16.58594 -20.75782,12.44922"
           id="path4208"
           inkscape:connector-curvature="0" />
      </g>
      <path
         inkscape:connector-curvature="0"
         id="path4210"
         d="m 324.71484,567.94922 c 0.19141,0.75 0.44922,1.25 0.67969,1.77734 l -17.23047,10.67969 c -0.35937,-1.03906 -0.72656,-2.39453 -0.875,-3.875 -0.17187,-1.79297 0.14063,-3.39844 0.45703,-4.5 l -0.0469,-0.0742 17.35156,-10.40625 c -0.28125,1.09766 -0.61328,1.99609 -0.62891,3.13281 -0.0156,1.52735 0.10157,2.51953 0.29297,3.26563"
         style="fill:#ffffff;fill-opacity:1;fill-rule:nonzero;stroke:none" />
      <path
         inkscape:connector-curvature="0"
         id="path4216"
         d="m 324.71484,567.94922 c 2.05078,1.15625 3.33985,1.8789 3.33985,1.8789 0,0 -14.94532,8.97266 -19.46875,11.6836 -0.12891,-0.3125 -0.27344,-0.6836 -0.42188,-1.10547 l 17.23047,-10.67969 c -0.23047,-0.52734 -0.48828,-1.02734 -0.67969,-1.77734"
         style="fill:#cbcbcb;fill-opacity:1;fill-rule:nonzero;stroke:none" />
      <path
         inkscape:connector-curvature="0"
         id="path4218"
         d="m 306.14844,577.07031 c 0.3125,3.32422 1.7539,6.00781 1.7539,6.00781 l -0.008,0.008 c -0.28516,0.51953 -30.81641,-17.31641 -30.81641,-17.31641 0,0 -1.33984,-1.98437 -1.32812,-5.27734 0.008,-3.29297 1.77734,-6.06641 1.77734,-6.06641 l 29.61719,16.62891 c 0,0 -0.21875,0.44531 -0.45703,1.20312 -0.33984,1.09766 -0.73047,2.84766 -0.53906,4.8125"
         style="fill:#e3e3e3;fill-opacity:1;fill-rule:nonzero;stroke:none" />
      <g
         id="g9051">
        <path
           style="fill:#ffffff;fill-opacity:1;fill-rule:nonzero;stroke:none"
           d="m 307.14453,571.05469 20.76172,-12.45313 c 0.19922,0.71094 -0.14453,1.32422 -0.14453,1.32422 l -2.71094,1.625 -17.35156,10.40625 -0.69531,0.41797 -0.31641,-0.11719 c 0.23828,-0.75781 0.45703,-1.20312 0.45703,-1.20312"
           id="path4212"
           inkscape:connector-curvature="0" />
        <path
           style="fill:#ffffff;fill-opacity:1;fill-rule:nonzero;stroke:none"
           d="m 308.58594,581.51172 c 4.52343,-2.71094 19.46875,-11.6836 19.46875,-11.6836 0.20312,0.70313 -0.14063,1.31641 -0.14063,1.31641 l -19.98437,12 -0.0352,-0.0586 0.008,-0.008 c 0,0 -1.4414,-2.68359 -1.7539,-6.00781 -0.19141,-1.96484 0.19922,-3.71484 0.53906,-4.8125 l 0.31641,0.11719 0.69531,-0.41797 0.0469,0.0742 c -0.3164,1.10156 -0.6289,2.70703 -0.45703,4.5 0.14844,1.48047 0.51563,2.83594 0.875,3.875 0.14844,0.42187 0.29297,0.79297 0.42188,1.10547"
           id="path4214"
           inkscape:connector-curvature="0" />
        <path
           style="fill:#ffffff;fill-opacity:1;fill-rule:nonzero;stroke:none"
           d="m 307.14453,571.05469 -29.61719,-16.62891 20.86328,-12.40625 29.51563,16.58203 -20.76172,12.45313"
           id="path4220"
           inkscape:connector-curvature="0" />
      </g>
    </g>
    <g
       id="g5330">
      <path
         inkscape:connector-curvature="0"
         id="path4146"
         d="m 255.05078,542.79687 -1.74219,-0.76953 -0.88672,1.57032 z m 0,0"
         style="fill:#8a8a8a;fill-opacity:1;fill-rule:nonzero;stroke:none" />
      <path
         inkscape:connector-curvature="0"
         style="fill:#676767;fill-opacity:1;fill-rule:nonzero;stroke:none;stroke-width:1.33333337"
         d="m 342.82227,702.61914 c -0.63022,0.31771 -1.26432,0.60937 -1.89454,0.90625 -0.3802,0.17188 -0.76106,0.36003 -1.16211,0.55273 l 2.53126,1.45313 -0.50586,0.29102 c 0.41666,0.51041 0.61591,1.14062 0.71484,1.73437 0.15104,1.15625 -0.14648,2.21484 -0.14648,2.21484 L 298.4375,734.40039 280.28125,723.625 c -1.81771,1.66667 -3.9681,3.92189 -6.11914,6.32812 -0.3802,-0.0468 -0.7552,-0.0469 -1.09375,-0.0469 l 0.0195,-0.38086 c -1.81251,-4.51041 -9.78583,-11.06771 -15.79101,-12.85937 -5.6771,7.14582 -11.05274,15.90104 -10.25586,19.35937 -0.96875,11.99479 -1.38933,59.8444 -0.082,75.06836 -0.48437,2.00521 -1.01106,3.94206 -1.5371,5.75977 -0.53126,1.7448 -1.07357,3.39714 -1.64649,4.93359 0.31771,0.0833 0.60937,0.17058 0.90625,0.31641 l 0.0215,0 c 3.22918,1.34896 5.94857,5.01692 9.55274,5.83984 2.48957,0.63541 6.32813,0.63541 9.76562,0.17187 1.83334,-0.25521 3.5612,-0.61588 4.91016,-1.12109 0.42187,-0.125 0.80208,-0.29622 1.14063,-0.46289 -1.41147,-3.52084 1.98046,-7.71941 1.98046,-11.24023 12.42188,-23.86979 16.7233,-40.63411 23.49415,-62.39454 18.3229,-11.77082 52.86523,-19.46483 65.64648,-35.26171 1.30729,-1.625 2.38022,-3.33204 3.20312,-5.14454 l 0.17188,0.082 c 0.58855,-1.26563 1.18165,-2.52995 1.74414,-3.76954 -4.72395,0.0417 -12.52084,-1.54297 -18.15625,-3.58984 -2.23437,-0.82292 -4.11002,-1.70832 -5.33398,-2.59375 z m 4.47656,10.01563 c -0.11557,0.0197 -0.23186,0.048 -0.34766,0.0723 0.11596,-0.0243 0.23194,-0.0525 0.34766,-0.0723 z m -0.91797,0.20507 c -0.12039,0.0324 -0.24085,0.0707 -0.36133,0.10743 0.12049,-0.0368 0.24093,-0.075 0.36133,-0.10743 z m -0.89648,0.28125 c -0.13144,0.0467 -0.26318,0.0953 -0.39454,0.14649 0.13135,-0.0512 0.2631,-0.0998 0.39454,-0.14649 z m -0.79297,0.31055 c -0.48854,0.20676 -0.9756,0.43863 -1.45899,0.69531 0.48368,-0.25689 0.97014,-0.48842 1.45899,-0.69531 z m -1.66016,0.80664 c -0.35065,0.19086 -0.69735,0.39964 -1.04297,0.60938 0.3463,-0.21024 0.69162,-0.4181 1.04297,-0.60938 z m -2.05469,1.2461 c -0.24424,0.16067 -0.48848,0.32107 -0.72851,0.48632 0.2413,-0.16621 0.48296,-0.32474 0.72851,-0.48632 z m -1.74414,1.20507 c -0.22978,0.16606 -0.46329,0.3304 -0.6875,0.4961 0.23036,-0.17037 0.45124,-0.32533 0.6875,-0.4961 z m -11.64453,7.60547 c -2.18532,1.22289 -4.41076,2.40181 -6.66016,3.5586 2.24897,-1.15657 4.47524,-2.33596 6.66016,-3.5586 z"
         transform="scale(0.75)"
         id="path4222" />
      <path
         inkscape:connector-curvature="0"
         id="path4224"
         d="m 210.21094,542.71875 c -1.36328,1.25 -2.97657,2.94141 -4.58985,4.74609 -0.28515,-0.0351 -0.5664,-0.0351 -0.82031,-0.0351 l 0.0156,-0.28516 c -1.35938,-3.38281 -7.33985,-8.30078 -11.84375,-9.64453 0.94531,-1.1875 1.91015,-2.32422 2.82812,-3.33594 l 14.41016,8.55469"
         style="fill:#545454;fill-opacity:1;fill-rule:nonzero;stroke:none" />
      <path
         inkscape:connector-curvature="0"
         id="path4226"
         d="m 221.92969,556.19141 c -1.86719,1.75781 -5.51953,2.86328 -7.875,3.35546 -1.33203,0.78907 -2.91016,1.04297 -4.49219,1.04297 0.78906,1.58203 2.37109,2.375 3.95312,3.42969 -2.37109,0.79297 -4.20703,2.10547 -5.78906,3.95703 0.51953,0 1.58203,0 2.10156,0 1.0625,4.22266 -3.16406,11.07031 -4.22265,15.29297 -1.58203,5.78906 -2.625,11.86328 -4.47266,17.39453 -1.85156,5 -3.6875,11.07422 -9.22265,12.11719 -2.1836,0.39453 -5.23438,0.20312 -7.84375,-0.14063 0.39453,-1.36328 0.78906,-2.8164 1.15234,-4.32031 3.67187,-14.76953 6.12109,-35.82031 13.38281,-52.34765 1.4375,-1.97657 4.22266,-5.41016 7.01953,-8.50782 5.77344,0.28125 15.40625,2.51172 16.3086,8.72657"
         style="fill:#727272;fill-opacity:1;fill-rule:nonzero;stroke:none" />
      <path
         inkscape:connector-curvature="0"
         style="fill:#707070;fill-opacity:1;fill-rule:nonzero;stroke:none;stroke-width:1.33333337"
         d="m 339.76562,704.07812 c -1.4948,0.75522 -3.0996,1.64127 -4.7871,2.55274 -1.94271,1.03124 -3.98893,2.0612 -6.00977,2.86328 -1.26563,0.52604 -2.55209,0.94791 -3.79687,1.20313 -0.125,0.0416 -0.27084,0.0834 -0.42188,0.10937 -1.66667,0.45833 -3.36913,0.39648 -5.05664,0.14648 -0.0417,0 -0.0846,0.041 -0.15234,0.041 -6.93751,2.93229 -14.18752,6.4948 -20.45313,9.35938 l 2.80859,7.8496 24.1875,-13.58398 1.76954,-0.98828 c 0.54688,-0.31772 1.0996,-0.65755 1.6621,-0.99609 -0.77604,0.27604 -1.51627,0.53125 -2.19335,0.78125 l 5.74023,-2.84375 0.44336,-0.23438 c 1.13541,-0.58855 2.23373,-1.18164 3.36914,-1.79101 l 3.35352,-1.85938 1.5625,-0.86523 0.50586,-0.29102 -2.53126,-1.45313 z"
         transform="scale(0.75)"
         id="path4232" />
      <path
         inkscape:connector-curvature="0"
         id="path4234"
         d="m 245.49219,535.0625 4.30468,-2.13281 c -0.71093,0.3789 -1.67968,0.96484 -2.66015,1.54687 -0.58203,0.20703 -1.13672,0.39844 -1.64453,0.58594"
         style="fill:#707070;fill-opacity:1;fill-rule:nonzero;stroke:none" />
      <path
         inkscape:connector-curvature="0"
         id="path4238"
         d="m 256.76953,532.32812 -32.94141,18.47266 -13.61718,-8.08203 -14.41016,-8.55469 -16.24219,-9.64844 c 0,0 -0.41015,-1.66015 0.34766,-2.9414 l 32.19922,19.10547 11.6914,6.9414 2.625,-1.46875 18.14063,-10.1875 1.32812,-0.74218 1.46875,-0.82422 c -0.0781,0.0312 -0.16015,0.0469 -0.22265,0.0781 0.98047,-0.58203 1.94922,-1.16797 2.66015,-1.54687 l 0.33204,-0.17578 0.99609,-0.48829 1.53125,-0.85546 2.51562,-1.39454 1.17188,-0.64843 c 0.3125,0.38281 0.46094,0.85547 0.53516,1.30078 0.11328,0.86719 -0.10938,1.66015 -0.10938,1.66015"
         style="fill:#8c8c8c;fill-opacity:1;fill-rule:nonzero;stroke:none" />
      <path
         inkscape:connector-curvature="0"
         id="path4240"
         d="m 247.35937,534.39844 -1.46875,0.82422 c 0.41016,-0.23829 0.82422,-0.49219 1.2461,-0.7461 0.0625,-0.0312 0.14453,-0.0469 0.22265,-0.0781"
         style="fill:#707070;fill-opacity:1;fill-rule:nonzero;stroke:none" />
      <path
         inkscape:connector-curvature="0"
         id="path4242"
         d="m 250.12891,532.75391 c 0.85156,-0.44141 1.67578,-0.88672 2.52734,-1.34375 l -1.53125,0.85546 -0.99609,0.48829"
         style="fill:#707070;fill-opacity:1;fill-rule:nonzero;stroke:none" />
      <path
         inkscape:connector-curvature="0"
         id="path4248"
         d="m 291.59766,474.64844 c 0.77343,1.86328 1.01171,4.42578 0.15625,7.40234 0.2539,-3.07031 0.0156,-6.08984 -1.13672,-8.69922 -0.22266,-0.53906 -0.47657,-1.10547 -0.79297,-1.66015 0.72656,0.34765 1.28125,1.01171 1.55078,2.11718 l 0.0625,-0.0156 c 0.0664,0.26953 0.125,0.55469 0.16016,0.85547"
         style="fill:#d9d9d9;fill-opacity:1;fill-rule:nonzero;stroke:none" />
      <path
         inkscape:connector-curvature="0"
         id="path4256"
         d="m 274.37109,420.05469 c 4.19141,2.70312 7.65625,7.44922 6.23438,11.58984 -1.58203,4.67969 -3.08594,8.60547 -4.95313,12.63672 -0.0781,1.1875 0.37891,2.19922 0.26953,3.43359 -0.0625,0.85157 -0.75781,1.76953 -1.64453,2.33985 -0.125,-0.19141 -0.26953,-0.36328 -0.39453,-0.53907 -0.0625,0.28516 -0.11328,0.57032 -0.17187,0.85547 -0.53907,0.23438 -1.09375,0.34766 -1.59766,0.23438 l -0.0352,0 c -0.0625,-0.58594 -0.10937,-1.19922 -0.10937,-1.78516 0.25391,-0.26953 0.46094,-0.53906 0.64844,-0.78906 -0.0312,-0.39453 -0.0469,-0.79297 -0.0781,-1.17188 1.55078,-0.42578 1.72266,-3.92187 2.14844,-5.51953 0.53906,-2.02343 -1.86719,-2.29297 -2.58984,-1.51953 -0.12891,0.8711 -0.23829,2.42188 -0.36719,3.90625 -0.67578,0.65235 -1.42188,1.25 -2.17969,1.83594 0.10938,-1.10547 0.0781,-1.99219 -0.0195,-2.73828 -0.23438,-1.83203 -0.89844,-2.8125 -1.23047,-4.04688 -0.33203,-1.15625 -0.67969,-2.08593 -0.90234,-3.08593 -0.66407,0.0976 -1.34375,0.14453 -2.00782,0.0976 l -0.0156,0 c -1.50391,-0.14062 -2.96094,-0.79297 -4.41406,-1.32812 0.39453,0.78906 1.32812,1.91406 1.25,2.76562 -1.10938,0 -3.16407,-1.375 -4.01953,-2.10156 -0.72266,-0.67969 -1.89454,-1.64453 -2.70313,-2.75391 0.28516,0.57032 0.55469,1.44141 0.73047,2.02344 -1.31641,-1.24609 -3.6875,-2.70312 -3.875,-4.80469 -0.58594,2.71875 -0.69922,5.14063 -0.69922,5.14063 0.83984,2.13281 0.46094,2.21484 0.16016,4.91406 0.0156,0.0977 0,0.17578 -0.0156,0.25391 -1.25,-4.14063 -0.91797,-9.75782 -0.91797,-9.75782 -0.55468,-10.54687 14.99219,-15.49609 23.45313,-10.02343 l 0.0469,-0.0625"
         style="fill:#5e5e5e;fill-opacity:1;fill-rule:nonzero;stroke:none" />
      <path
         inkscape:connector-curvature="0"
         id="path4266"
         d="m 273.88281,449.51562 c 0.125,0.17579 0.26953,0.34766 0.39453,0.53907 -0.17187,0.125 -0.3789,0.23437 -0.5664,0.3164 0.0586,-0.28515 0.10937,-0.57031 0.17187,-0.85547"
         style="fill:#797979;fill-opacity:1;fill-rule:nonzero;stroke:none" />
      <path
         inkscape:connector-curvature="0"
         id="path4270"
         d="m 270.40234,490.36719 c 0.28516,0.36328 0.58594,0.69531 0.91797,1.02734 -0.36328,-0.28516 -0.71094,-0.56641 -1.07422,-0.86719 0.0312,-0.0781 0.0625,-0.16015 0.0937,-0.23828 0.0156,0.0312 0.0469,0.0469 0.0625,0.0781"
         style="fill:#ededed;fill-opacity:1;fill-rule:nonzero;stroke:none" />
      <path
         inkscape:connector-curvature="0"
         id="path4274"
         d="m 254.57031,456.33203 c -0.0156,0.0469 -0.0312,0.0937 -0.0469,0.14453 0,-0.0351 0,-0.0781 0,-0.11328 0.0156,-0.0156 0.0312,-0.0156 0.0469,-0.0312"
         style="fill:#ffffff;fill-opacity:1;fill-rule:nonzero;stroke:none" />
      <path
         inkscape:connector-curvature="0"
         id="path4278"
         d="m 249.01953,490.74609 c 0,0.082 0,0.16016 0,0.23828 -0.0312,-0.125 -0.0625,-0.23828 -0.0937,-0.36328 0.0312,0.0469 0.0625,0.0937 0.0937,0.125"
         style="fill:#898989;fill-opacity:1;fill-rule:nonzero;stroke:none" />
      <path
         inkscape:connector-curvature="0"
         id="path4284"
         d="m 243.69141,519.32812 c 0.57031,0.28125 1.12109,0.55079 1.66015,0.80469 -0.63281,0.49219 -1.26172,0.96485 -1.92969,1.37891 l -2.05859,-1.1875 -13.89844,-7.97266 c 1.5625,-0.52344 3.09766,-1.34375 4.53907,-2.23047 0.0781,-0.0312 0.14062,-0.0781 0.20312,-0.10937 2.15234,4.17578 7.08594,7.14844 11.48438,9.3164"
         style="fill:#545454;fill-opacity:1;fill-rule:nonzero;stroke:none" />
      <path
         inkscape:connector-curvature="0"
         style="fill:#707070;fill-opacity:1;fill-rule:nonzero;stroke:none;stroke-width:1.33333337"
         d="m 294.42773,678.05273 c -0.5677,0.76042 -1.11458,1.52019 -1.625,2.32227 0.80208,0.54688 1.54102,1.11524 2.38477,1.64648 0.60939,0.39584 1.24414,0.75456 1.85352,1.13477 0.0625,0.026 0.11074,0.0619 0.15234,0.10352 6.46875,4.64062 14.27539,9.30337 20.61914,12.94921 0.19272,0.10938 0.36003,0.21228 0.55273,0.31641 -0.1927,0.0626 -0.33919,0.1459 -0.50585,0.1875 0.5677,-0.0833 1.15625,0.0677 1.75,0.40625 0.0833,0.0417 0.18815,0.10544 0.27148,0.16797 1.32812,-0.21353 2.63932,-0.74088 3.87891,-1.48047 0.27604,-0.125 0.54753,-0.29036 0.80273,-0.45703 l -2.74414,-1.58399 -18.53125,-10.63085 -4.87109,-2.80079 -3.98829,-2.28125 z m 26.15039,16.13477 c 0.0626,0.0209 0.12497,0.0417 0.1875,0.0625 -0.0833,0.0208 -0.14518,0.0632 -0.22851,0.084 0,-0.0209 0.015,-0.0839 0.041,-0.14648 z"
         transform="scale(0.75)"
         id="path4286" />
      <path
         inkscape:connector-curvature="0"
         id="path4288"
         d="m 242.69141,526.36719 c 0,0 0,0 0,0.0117 -0.0117,-0.0117 -0.0117,-0.0117 -0.0312,-0.0117 0.0195,0 0.0195,0 0.0312,0"
         style="fill:#c3c3c3;fill-opacity:1;fill-rule:nonzero;stroke:none" />
      <path
         inkscape:connector-curvature="0"
         id="path4290"
         d="m 240.57422,520.6875 c -0.0625,0.0156 -0.10938,0.0469 -0.17188,0.0625 0,-0.0156 0.0117,-0.0625 0.0312,-0.10938 0.0469,0.0156 0.0937,0.0312 0.14063,0.0469"
         style="fill:#c3c3c3;fill-opacity:1;fill-rule:nonzero;stroke:none" />
      <path
         inkscape:connector-curvature="0"
         id="path4292"
         d="m 239.91016,522.96484 c -0.0781,0.0156 -0.17188,0.0312 -0.26954,0.0469 -0.21875,0.0312 -0.4414,0.0469 -0.67968,0.0469 l -0.0156,0 c -0.28125,-0.0937 -0.5664,-0.1875 -0.83594,-0.28515 -2.8164,-0.98047 -5.30078,-2.14844 -8.52734,-2.2461 -0.89844,0.69922 -1.72266,1.47266 -2.49609,2.27735 -2.5,-1.59375 -5.30078,-3.58985 -7.94141,-5.50391 -0.0156,0.0156 -0.0156,0.0508 -0.0312,0.0664 -0.55469,-0.41407 -1.55078,-0.85547 -2.00781,-1.41016 0.3164,-0.82031 0.60156,-1.66016 0.85547,-2.52734 0.0156,-0.0508 0.0312,-0.0977 0.0469,-0.14453 0.42578,-1.09375 0.96094,-2.07422 1.59375,-3.00391 0.60156,0.41016 1.15625,0.83594 1.78906,1.23437 0.45704,0.29688 0.9336,0.56641 1.39063,0.85157 0.0469,0.0195 0.082,0.0469 0.11328,0.0781 4.85156,3.48047 10.70703,6.97656 15.46484,9.71094 0.14454,0.082 0.26954,0.16016 0.41407,0.23828 -0.14453,0.0469 -0.25391,0.10938 -0.37891,0.14063 0.42578,-0.0625 0.86719,0.0508 1.3125,0.30468 0.0625,0.0312 0.14063,0.0781 0.20313,0.125"
         style="fill:#a2a2a2;fill-opacity:1;fill-rule:nonzero;stroke:none" />
      <path
         inkscape:connector-curvature="0"
         id="path4294"
         d="m 239.625,533.17969 c 0.0508,0.0156 0.0937,0.0351 0.14453,0.0351 -0.0312,0 -0.0625,0.0312 -0.11328,0.0312 0,-0.0156 -0.0312,-0.0312 -0.0312,-0.0664"
         style="fill:#4e4e4e;fill-opacity:1;fill-rule:nonzero;stroke:none" />
      <path
         inkscape:connector-curvature="0"
         id="path4296"
         d="m 228.69531,530.96875 c 0.0195,0 0.0195,-0.0195 0.0195,-0.0195 0.15625,-0.0469 0.28125,-0.0625 0.41016,-0.0781 -0.0625,0.0781 -0.12891,0.14453 -0.19141,0.20703 -0.80468,0.66407 -1.53515,1.4375 -2.29297,2.1836 -0.36328,0.34375 -0.74218,0.71094 -1.13671,1.01172 0.0156,0.15625 0.0156,0.2539 0.0156,0.28515 0,0 -0.082,0.17188 -0.26953,0.41016 0.0156,0.0156 0.0312,0.0156 0.0469,0.0312 0.34766,0.1875 0.67969,0.31641 1,0.42578 0.73829,0.20703 1.42188,0.12891 2.32032,-0.31641 0.52343,-0.55078 1.17187,-1.02734 1.83593,-1.4375 0.50782,-0.3164 1.01172,-0.58593 1.53516,-0.85546 0.55078,-0.28516 1.12109,-0.55079 1.62891,-0.82032 2.00781,0.15625 4.01562,0.85547 6.00781,1.1836 0,0.0351 0.0312,0.0508 0.0312,0.0664 -5.20313,2.19922 -10.64063,4.8711 -15.33984,7.01953 l -3.17969,-8.76171 c 0.26953,0.14453 0.57031,0.10937 0.90234,0.14453 0.0781,-0.0156 0.14063,-0.0352 0.22266,-0.0625 l 0.0156,0.0625 c 0.98047,1.46875 1.78516,1.26172 3.21094,0.4414 0.15625,-0.0937 0.33203,-0.1914 0.50391,-0.26953 0,0 0,0 0.0156,0 0.14453,-0.0625 0.26953,-0.10937 0.41406,-0.15625 0,0 0.0156,0 0.0273,-0.0156 0.39844,-0.12891 0.80859,-0.23828 1.21875,-0.41407 0.0312,-0.0156 0.0508,-0.0312 0.0781,-0.0312 0.33203,-0.0937 0.66407,-0.1875 0.94922,-0.23437"
         style="fill:#646464;fill-opacity:1;fill-rule:nonzero;stroke:none" />
      <path
         inkscape:connector-curvature="0"
         id="path4298"
         d="m 238.53516,474.14062 c 0.0156,0.83985 0.0156,1.67579 0.0156,2.51563 -0.0977,0.20703 -0.19141,0.41016 -0.28516,0.61719 0,-1.04297 0.0469,-2.08985 0.14063,-3.14844 0.0469,0.0156 0.0781,0.0156 0.12891,0.0156"
         style="fill:#ededed;fill-opacity:1;fill-rule:nonzero;stroke:none" />
      <g
         id="g6803">
        <path
           style="fill:#c2c2c2;fill-opacity:1;fill-rule:nonzero;stroke:none"
           d="m 290.33203,487.48828 c -0.41016,2.28125 -0.88672,4.60547 -1.12109,6.84766 -1.55469,0.0664 -3.46875,-0.48828 -4.65235,-0.69532 -2.5,-0.39453 -4.62109,-0.91406 -6.84765,-1.97656 -2.13672,-1.01172 -6.89844,-2.85937 -8.20703,-5.25 1.24609,-2.26172 1.97656,-4.77734 2.78125,-7.24219 1.02734,-3.19531 2.19921,-6.28125 4.76171,-8.58984 1.84766,-1.72266 4.47266,-3.69922 7.24219,-3.43359 2.21485,0.28906 4.01953,2.05859 5.21875,4.01953 0.10938,0.17578 0.20703,0.34765 0.30078,0.52344 l 0.0156,0 c 0.3164,0.55468 0.57031,1.12109 0.79297,1.66015 1.15234,2.60938 1.39062,5.62891 1.13672,8.69922 -0.0781,0.26563 -0.15625,0.53516 -0.25,0.80469 -0.19141,0.58594 -0.42969,1.17187 -0.73047,1.78906 -0.11328,0.92969 -0.26953,1.87891 -0.44141,2.84375"
           id="path4244"
           inkscape:connector-curvature="0" />
        <path
           style="fill:#e1e1e1;fill-opacity:1;fill-rule:nonzero;stroke:none"
           d="m 271.32031,491.39453 c -0.33203,-0.33203 -0.63281,-0.66406 -0.91797,-1.02734 -0.0156,-0.0312 -0.0469,-0.0469 -0.0625,-0.0781 -0.0312,0.0781 -0.0625,0.16016 -0.0937,0.23828 -0.77734,-0.66406 -1.5039,-1.3789 -2.02343,-2.15234 0.48828,-0.63281 0.89843,-1.28125 1.28125,-1.96094 1.30859,2.39063 6.07031,4.23828 8.20703,5.25 2.22656,1.0625 4.34765,1.58203 6.84765,1.97656 1.1836,0.20704 3.09766,0.76172 4.65235,0.69532 -0.14453,1.15625 -0.20703,2.29687 -0.17578,3.38672 -0.8711,0 -1.82032,-0.0625 -2.83204,-0.17188 0.0781,-0.33203 0.14454,-0.66797 0.22266,-1.01562 -0.16016,0.33203 -0.31641,0.66406 -0.47656,0.98046 -0.37891,-0.0469 -0.75781,-0.10937 -1.15235,-0.17187 -4.41406,-0.71094 -9.55468,-2.46875 -12.85937,-5.35938 -0.20703,-0.1914 -0.41016,-0.38281 -0.61719,-0.58984"
           id="path4246"
           inkscape:connector-curvature="0" />
        <path
           style="fill:#ababab;fill-opacity:1;fill-rule:nonzero;stroke:none"
           d="m 249.01953,490.98437 c 0,-0.0781 0,-0.15625 0,-0.23828 -0.0312,-0.0312 -0.0625,-0.0781 -0.0937,-0.125 0.0312,0.125 0.0625,0.23828 0.0937,0.36328 z m 20.48438,-4.57031 c -0.38282,0.67969 -0.79297,1.32813 -1.28125,1.96094 0.51953,0.77344 1.24609,1.48828 2.02343,2.15234 -0.082,0.20313 -0.16015,0.41016 -0.22265,0.61719 -0.14063,0.37891 -0.28516,0.77344 -0.41016,1.16797 -0.17578,0.55469 -0.33203,1.14062 -0.47656,1.72656 -0.37891,1.76953 -1.1211,3.79297 -1.83203,5.76953 -0.76172,2.13672 -1.45703,4.25782 -1.59766,5.96485 l 0.1875,0.25 c -4.94922,3.95703 -11.11719,6.80468 -16.25781,10.55078 -0.17188,0.125 -0.36328,0.26953 -0.53516,0.41015 l -0.0156,0.0195 c -0.22266,0.17187 -0.46094,0.36328 -0.69922,0.58593 -5.58203,-2.46875 -12.00391,-5.14453 -15.02344,-10.69531 1.67578,-3.92187 3.39844,-7.51172 4.85547,-11.24609 0.125,-4.14063 0.23437,-8.26953 0.28516,-12.39844 0.0312,-2.19531 0.0469,-4.39453 0.0469,-6.59375 0,-0.83984 0,-1.67578 -0.0156,-2.51563 -0.0508,0 -0.082,0 -0.12891,-0.0156 0.0781,-1.17188 0.20703,-2.33984 0.39844,-3.49219 0.42578,-2.94531 1.12109,-5.85547 2.13281,-8.62109 1.58203,-4.22266 3.29297,-8.30469 5.78906,-11.99219 1.07422,-1.5625 3.46485,-5.625 5.47266,-6.64062 0.0781,0.33593 0.14453,0.68359 0.20312,1.04296 0.12891,0.64844 0.20703,1.23438 0.25391,1.77344 0.16016,1.62891 0.11328,2.87891 0.35156,4.25391 0.0469,0.34765 0.125,0.71094 0.21875,1.08984 0.0312,0.33203 0.22266,0.64844 0.55469,0.94922 -1.37891,1.60156 -1.37891,4.80859 -1.25,6.75391 0.125,3.16406 2.10156,5.66406 5.41016,6.19922 3.68359,0.64843 7.76562,-0.53516 11.07031,-2.2461 2.29297,-1.26172 6.07422,-3.03515 7.25781,-5.76953 0.31641,0.26563 0.62109,0.51953 0.93359,0.77344 0.8711,0.74219 1.75782,1.47265 2.54688,2.23047 1.4375,1.39062 2.95703,2.83203 4.28516,4.28515 0.64843,0.72657 1.10937,1.51953 1.89843,2.03907 0.33203,0.2539 0.67969,0.44531 1.01172,0.63281 l -0.0156,0.0312 c 1,1.21875 1.86718,2.46875 2.57812,3.75 -1.19922,-1.96094 -3.0039,-3.73047 -5.21875,-4.01953 -2.76953,-0.26563 -5.39453,1.71093 -7.24219,3.43359 -2.5625,2.30859 -3.73437,5.39453 -4.76171,8.58984 -0.80469,2.46485 -1.53516,4.98047 -2.78125,7.24219"
           id="path4250"
           inkscape:connector-curvature="0" />
        <path
           style="fill:#ababab;fill-opacity:1;fill-rule:nonzero;stroke:none"
           d="m 285.94922,497.51562 c 0.0781,0.0156 0.17187,0.0156 0.2539,0.0352 -0.58593,2.90625 -1.15234,5.56641 -1.64453,7.55859 -1.77343,8.33204 -4.67968,15.3086 -8.03515,22.64844 -3.09766,0.15625 -6.87891,-0.79297 -9.48828,-1.42578 -1.58204,-0.39453 -3.16407,-1.3125 -4.79297,-1.73828 1.72656,-0.80469 3.44922,-1.64453 5.09375,-2.5625 1.84765,-1.02734 3.63672,-2.15234 5.26562,-3.41797 0.63281,-0.48828 1.23438,-0.99609 1.80469,-1.51562 0.55078,-0.47657 1.07422,-0.94922 1.55078,-1.45704 3.88672,-5.25 6.46484,-10.64453 9.26563,-16.58984 0.23828,-0.50391 0.47656,-1.01172 0.72656,-1.53516"
           id="path4252"
           inkscape:connector-curvature="0" />
        <path
           style="fill:#c2c2c2;fill-opacity:1;fill-rule:nonzero;stroke:none"
           d="m 267.03516,526.33203 c 2.60937,0.63281 6.39062,1.58203 9.48828,1.42578 -0.58594,1.26563 -1.1836,2.54688 -1.78907,3.84375 -3.54296,0.0312 -9.39062,-1.15625 -13.61718,-2.6914 -1.67578,-0.61719 -3.08203,-1.28125 -4,-1.94532 1.67578,-0.77343 3.40234,-1.55078 5.10937,-2.37109 l 0.0156,0 c 1.6289,0.42578 3.21093,1.34375 4.79297,1.73828"
           id="path4258"
           inkscape:connector-curvature="0" />
        <path
           style="fill:#e1e1e1;fill-opacity:1;fill-rule:nonzero;stroke:none"
           d="m 255.45703,461.23437 0,-0.0156 -0.0156,0 c 0,0.0156 0.0156,0.0156 0.0156,0.0156 z m 19.40625,-5.02734 c 0.45703,0.42578 0.91797,0.82031 1.40625,1.21875 -1.18359,2.73438 -4.96484,4.50781 -7.25781,5.76953 -3.30469,1.71094 -7.38672,2.89453 -11.07031,2.2461 -3.3086,-0.53516 -5.28516,-3.03516 -5.41016,-6.19922 -0.12891,-1.94532 -0.12891,-5.15235 1.25,-6.75391 0.28516,0.26953 0.66406,0.52344 1.10937,0.76172 0.125,0.0469 0.26563,0.10937 0.39454,0.17187 0.0742,0.0312 0.15625,0.0664 0.23437,0.0937 -0.20703,0.28907 -0.37891,0.57422 -0.50391,0.85547 -0.3164,0.66407 -0.47656,1.32813 -0.49218,1.99219 0,0.0352 0,0.0781 0,0.11328 0,0.0117 0,0.0117 0,0.0312 0.0156,0.9336 0.30078,1.83594 0.78906,2.625 0.36719,0.56641 0.83984,1.08985 1.39453,1.51953 1.15234,0.86719 2.67188,1.35938 4.33203,1.16797 0.0312,0 0.0781,-0.0156 0.11328,-0.0156 0.0156,0 0.0156,0 0.0312,0 0.74219,-0.0937 1.46875,-0.21875 2.1836,-0.37891 3.79297,-0.87109 7.07031,-2.65625 9.88281,-4.52344 0.14453,-0.61718 0.14453,-1.25 -0.0469,-1.89843 -0.0625,-0.0781 -0.11328,-0.17188 -0.15625,-0.26954 -0.0664,-0.0781 -0.0976,-0.15625 -0.14453,-0.23437 -0.20703,-0.42969 -0.36328,-0.88672 -0.47265,-1.34375 0.17187,0.28125 0.36328,0.56641 0.5664,0.83594 0.49219,0.69531 1.04688,1.35937 1.59766,1.92968 0.082,0.0937 0.17578,0.1875 0.26953,0.28516"
           id="path4260"
           inkscape:connector-curvature="0" />
        <path
           style="fill:#979797;fill-opacity:1;fill-rule:nonzero;stroke:none"
           d="m 252.12109,442.98437 c 0.0312,0.125 0.0625,0.25391 0.0781,0.39454 -2.00781,1.01562 -4.39844,5.07812 -5.47266,6.64062 -2.49609,3.6875 -4.20703,7.76953 -5.78906,11.99219 -1.01172,2.76562 -1.70703,5.67578 -2.13281,8.62109 -4.06641,-1.30078 -8.57422,-5.78906 -8.42969,-10.15625 1.15234,-1.20312 2.32422,-2.38672 3.30469,-3.73437 1.84765,-2.3711 3.55859,-4.74219 5.41015,-6.98828 l 0.0312,0.0156 c 0.9336,-1.42187 1.89844,-2.84766 2.86328,-4.23828 0.125,-0.17578 0.26954,-0.36328 0.41016,-0.53516 0.41016,-0.53906 0.87109,-1.0625 1.35938,-1.51953 0.85546,-0.82422 1.83593,-1.5039 2.96093,-1.85156 1.5,0.0625 3.96485,0.74219 5.40625,1.35937"
           id="path4276"
           inkscape:connector-curvature="0" />
        <path
           style="fill:#c2c2c2;fill-opacity:1;fill-rule:nonzero;stroke:none"
           d="m 248.38672,517.58984 c -0.94922,0.77344 -1.97656,1.6875 -3.03516,2.54297 -0.53906,-0.2539 -1.08984,-0.52344 -1.66015,-0.80469 -4.39844,-2.16796 -9.33204,-5.14062 -11.48438,-9.3164 -0.0312,-0.0469 -0.0469,-0.0937 -0.0781,-0.16016 l 0,-0.0156 c 0.41015,-1.01172 0.82031,-1.97657 1.23437,-2.94141 3.01953,5.55078 9.44141,8.22656 15.02344,10.69531"
           id="path4282"
           inkscape:connector-curvature="0" />
        <path
           style="fill:#e1e1e1;fill-opacity:1;fill-rule:nonzero;stroke:none"
           d="m 238.80469,470.63281 c -0.19141,1.15235 -0.32032,2.32031 -0.39844,3.49219 -0.85156,-0.0469 -1.66016,-0.34766 -2.43359,-0.78906 -1.23438,-0.6836 -2.35547,-1.70703 -3.33594,-2.625 -0.83985,-0.83985 -2.32422,-2.45313 -3.3711,-4.08203 -0.0156,-0.0156 -0.0156,-0.0156 -0.0156,-0.0312 -0.75781,-1.20313 -1.27734,-2.38672 -1.10547,-3.27735 l -0.14062,-0.10937 c 0.71093,-0.96094 1.53125,-1.84766 2.37109,-2.73438 -0.14453,4.36719 4.36328,8.85547 8.42969,10.15625"
           id="path4300"
           inkscape:connector-curvature="0" />
      </g>
      <g
         id="g6794">
        <path
           style="fill:#d6d6d6;fill-opacity:1;fill-rule:nonzero;stroke:none"
           d="m 229.125,530.87109 c -0.12891,0.0156 -0.25391,0.0312 -0.41016,0.0781 1.28125,-1.02735 2.44922,-0.83594 4.71094,-0.9336 2.5,0 5.92969,-1.70703 6.97656,-3.95312 3.30078,5.93359 12.65235,0.26953 16.35157,-2.24609 7.76562,-5.13672 16.0664,-8.94922 18.3125,-18.97657 0.66796,-3.01953 1.58593,-5.53515 -0.51954,-8.03515 -1.45703,-1.58203 -3.95312,-2.76563 -4.88671,-4.47657 l -0.0469,-0.0156 c 0.125,-0.39453 0.26953,-0.78906 0.41016,-1.16797 0.0625,-0.20703 0.14062,-0.41406 0.22265,-0.61719 0.36328,0.30078 0.71094,0.58203 1.07422,0.86719 0.20703,0.20703 0.41016,0.39844 0.61719,0.58984 3.30469,2.89063 8.44531,4.64844 12.85937,5.35938 0.39454,0.0625 0.77344,0.125 1.15235,0.17187 -0.25,0.52344 -0.48828,1.03125 -0.72656,1.53516 -2.80079,5.94531 -5.37891,11.33984 -9.26563,16.58984 -0.47656,0.50782 -1,0.98047 -1.55078,1.45704 -0.57031,0.51953 -1.17188,1.02734 -1.80469,1.51562 -1.6289,1.26563 -3.41797,2.39063 -5.26562,3.41797 -1.64453,0.91797 -3.36719,1.75781 -5.09375,2.5625 l -0.0156,0 c -1.70703,0.82031 -3.43359,1.59766 -5.10937,2.37109 -0.47266,0.23828 -0.94922,0.45703 -1.42188,0.67969 -0.28515,0.12891 -0.57031,0.26953 -0.87109,0.41406 -1.1211,0.56641 -2.32422,1.23047 -3.58985,1.91407 -1.45703,0.77343 -2.99218,1.54687 -4.50781,2.14843 -0.94922,0.39453 -1.91406,0.71094 -2.84765,0.90235 -0.0937,0.0312 -0.20313,0.0625 -0.31641,0.082 -1.25,0.34375 -2.52734,0.29687 -3.79297,0.10937 -0.0508,0 -0.0937,-0.0195 -0.14453,-0.0351 -1.99219,-0.32813 -4,-1.02735 -6.00781,-1.1836 -0.50782,0.26953 -1.07813,0.53516 -1.62891,0.82032 -0.52344,0.26953 -1.02734,0.53906 -1.53516,0.85546 -0.66406,0.41016 -1.3125,0.88672 -1.83593,1.4375 -0.89844,0.44532 -1.58203,0.52344 -2.32032,0.31641 -0.32031,-0.10937 -0.65234,-0.23828 -1,-0.42578 0.42579,-0.55469 0.85547,-1.23047 1.39063,-1.72656 0.74609,-0.71094 1.50391,-1.4375 2.24609,-2.19532 0.0625,-0.0781 0.14453,-0.14453 0.22266,-0.20703 -0.0156,0 -0.0156,0 -0.0312,0"
           id="path4254"
           inkscape:connector-curvature="0" />
        <path
           style="fill:#dadada;fill-opacity:1;fill-rule:nonzero;stroke:none"
           d="m 232.80859,525.66797 0.0469,-0.14063 c -0.31641,-0.4414 -0.62891,-1.20312 -0.78906,-1.82031 l 0,-0.0156 c -1.23438,0.0156 -2.1211,0.55468 -3.14844,1.02734 0.10937,-0.0156 0.22265,0 0.33203,0.0156 0.0625,0 0.10937,0 0.17578,0.0156 0.10938,0 0.20313,0.0195 0.31641,0.0508 0.14062,0.0312 0.29687,0.0469 0.4414,0.0781 0.23828,0.0625 0.46094,0.10937 0.69532,0.17187 0.17578,0.0625 0.34765,0.11328 0.52343,0.16016 0.49219,0.17187 0.96485,0.33203 1.40625,0.45703 z m 9.88282,0.71094 c 0,-0.0117 0,-0.0117 0,-0.0117 -0.0117,0 -0.0117,0 -0.0312,0 0.0195,0 0.0195,0 0.0312,0.0117 z m 5.69531,-8.78907 c 0.23828,-0.22265 0.47656,-0.41406 0.69922,-0.58593 l 0.0156,-0.0195 c 0.17188,-0.14062 0.36328,-0.28515 0.53516,-0.41015 5.14062,-3.7461 11.30859,-6.59375 16.25781,-10.55078 l -0.1875,-0.25 c 0.14063,-1.70703 0.83594,-3.82813 1.59766,-5.96485 0.71093,-1.97656 1.45312,-4 1.83203,-5.76953 0.14453,-0.58594 0.30078,-1.17187 0.47656,-1.72656 l 0.0469,0.0156 c 0.93359,1.71094 3.42968,2.89454 4.88671,4.47657 2.10547,2.5 1.1875,5.01562 0.51954,8.03515 -2.2461,10.02735 -10.54688,13.83985 -18.3125,18.97657 -3.69922,2.51562 -13.05079,8.17968 -16.35157,2.24609 -1.04687,2.24609 -4.47656,3.95312 -6.97656,3.95312 -2.26172,0.0977 -3.42969,-0.0937 -4.71094,0.9336 0,0 0,0.0195 -0.0195,0.0195 -0.28515,0.0469 -0.61719,0.14062 -0.94922,0.23437 -0.0273,0 -0.0469,0.0156 -0.0781,0.0312 -0.23438,0.0625 -0.47266,0.14454 -0.74219,0.23829 -0.15625,0.0625 -0.31641,0.11328 -0.47656,0.17578 -0.0117,0.0156 -0.0273,0.0156 -0.0273,0.0156 -0.14453,0.0469 -0.26953,0.0937 -0.41406,0.15625 -0.0156,0 -0.0156,0 -0.0156,0 -0.17188,0.0781 -0.34766,0.17578 -0.50391,0.26953 -1.42578,0.82032 -2.23047,1.02735 -3.21094,-0.4414 l -0.0156,-0.0625 c -0.082,0.0273 -0.14453,0.0469 -0.22266,0.0625 -0.33203,-0.0352 -0.63281,0 -0.90234,-0.14453 l -0.33203,-0.9336 c 0.39453,-0.35937 0.82422,-0.71094 1.1875,-1.02734 0.1875,-0.20313 0.39453,-0.41016 0.60156,-0.63281 -0.0156,0.1289 -0.0469,0.2539 -0.0664,0.34765 0.0977,-0.17187 0.23828,-0.39453 0.36719,-0.64844 0.42578,-0.80468 0.94922,-1.88281 1.35938,-2.41796 0.3164,-0.36329 0.67968,-0.69532 0.99609,-1.0586 0,-0.11328 0,-0.22265 0,-0.33203 0.60156,-0.68359 1.19922,-1.34766 1.83594,-1.99609 0.77343,-0.80469 1.59765,-1.57813 2.49609,-2.27735 3.22656,0.0977 5.71094,1.26563 8.52734,2.2461 0.26954,0.0976 0.55469,0.1914 0.83594,0.28515 l 0.0156,0 c 0.23828,0 0.46093,-0.0156 0.67968,-0.0469 0.0977,-0.0156 0.19141,-0.0312 0.26954,-0.0469 0.99609,-0.16015 1.98046,-0.55468 2.91015,-1.10937 0.20703,-0.0937 0.41016,-0.21875 0.60156,-0.34375 0.66797,-0.41406 1.29688,-0.88672 1.92969,-1.37891 1.0586,-0.85547 2.08594,-1.76953 3.03516,-2.54297"
           id="path4262"
           inkscape:connector-curvature="0" />
        <path
           style="fill:#dadada;fill-opacity:1;fill-rule:nonzero;stroke:none"
           d="m 272.09766,439.82031 c 0.72265,-0.77344 3.1289,-0.5039 2.58984,1.51953 -0.42578,1.59766 -0.59766,5.09375 -2.14844,5.51953 -0.30078,0.0781 -0.67969,0.0469 -1.10547,-0.15625 -0.24218,1.01172 -0.71484,2.38672 -1.88281,3.60547 0,0.0156 0,0.0156 -0.0195,0.0312 -0.96094,0.60157 -2.05469,1.1836 -3.19141,1.70703 -0.0976,-0.34765 -0.16015,-0.66406 -0.1914,-0.98046 -0.20703,-1.375 -0.0625,-2.64063 -0.47266,-4.55469 -0.28516,-1.50391 -0.74609,-2.57813 -0.55469,-3.9375 0.31641,-2.21485 0.69532,-2.29688 -0.10937,-4.03516 0,0 0.0625,-1.16797 0.3789,-2.75 0.66407,0.0469 1.34375,0 2.00782,-0.0976 0.22265,1 0.57031,1.92968 0.90234,3.08593 0.33203,1.23438 0.99609,2.21485 1.23047,4.04688 0.0977,0.74609 0.12891,1.63281 0.0195,2.73828 0.75781,-0.58594 1.50391,-1.18359 2.17969,-1.83594 0.1289,-1.48437 0.23828,-3.03515 0.36719,-3.90625"
           id="path4264"
           inkscape:connector-curvature="0" />
        <path
           style="fill:#d6d6d6;fill-opacity:1;fill-rule:nonzero;stroke:none"
           d="m 273.20312,455.00391 c 0.19141,0.64843 0.19141,1.28125 0.0469,1.89843 -2.8125,1.86719 -6.08984,3.65235 -9.88281,4.52344 -0.71485,0.16016 -1.44141,0.28516 -2.1836,0.37891 -0.0156,0 -0.0156,0 -0.0312,0 -0.0351,0 -0.082,0.0156 -0.11328,0.0156 -1.66015,0.19141 -3.17969,-0.30078 -4.33203,-1.16797 -0.55469,-0.42968 -1.02734,-0.95312 -1.39453,-1.51953 -0.48828,-0.78906 -0.77344,-1.6914 -0.78906,-2.625 0,-0.0195 0,-0.0195 0,-0.0312 0.0156,-0.0508 0.0312,-0.0976 0.0469,-0.14453 -0.0156,0.0156 -0.0312,0.0156 -0.0469,0.0312 0.0156,-0.66406 0.17578,-1.32812 0.49218,-1.99219 0.125,-0.28125 0.29688,-0.5664 0.50391,-0.85547 0.88672,0.38282 1.88281,0.66797 2.69141,0.8086 0.125,0.0312 0.23828,0.0469 0.34765,0.0469 0.0312,0.0156 0.0469,0.0156 0.0625,0.0156 0.0781,0.0156 0.15625,0.0312 0.23438,0.0312 0.1914,0.0156 0.38281,0.0312 0.50781,0.0156 0.85547,-0.0312 4.00391,-1.02734 6.97656,-2.38672 1.13672,-0.52343 2.23047,-1.10546 3.19141,-1.70703 0.0195,-0.0156 0.0195,-0.0156 0.0195,-0.0312 1.16797,-1.21875 1.64063,-2.59375 1.88281,-3.60547 0.42578,0.20313 0.80469,0.23438 1.10547,0.15625 0.0312,0.37891 0.0469,0.77735 0.0781,1.17188 -0.1875,0.25 -0.39453,0.51953 -0.64844,0.78906 0,0.58594 0.0469,1.19922 0.10937,1.78516 0.0508,0.53906 0.12891,1.0625 0.16016,1.51953 0.0469,0.33203 0.0937,0.66406 0.19141,1.03125 0.10937,0.45703 0.26562,0.91406 0.47265,1.34375 0.0469,0.0781 0.0781,0.15625 0.14453,0.23437 0.043,0.0977 0.0937,0.19141 0.15625,0.26954"
           id="path4268"
           inkscape:connector-curvature="0" />
        <path
           style="fill:#e3e3e3;fill-opacity:1;fill-rule:nonzero;stroke:none"
           d="m 253.78125,452.48828 c -0.33203,-0.30078 -0.52344,-0.61719 -0.55469,-0.94922 -0.0937,-0.3789 -0.17187,-0.74219 -0.21875,-1.08984 -0.23828,-1.375 -0.1914,-2.625 -0.35156,-4.25391 -0.0469,-0.53906 -0.125,-1.125 -0.25391,-1.77344 -0.0586,-0.35937 -0.125,-0.70703 -0.20312,-1.04296 -0.0156,-0.14063 -0.0469,-0.26954 -0.0781,-0.39454 -0.1289,-0.64843 -0.2539,-1.25 -0.30078,-1.88281 -0.0469,-0.39453 -0.0625,-0.78906 -0.0312,-1.20312 0.0156,-0.0781 0.0312,-0.15625 0.0156,-0.25391 0.30078,-2.69922 0.67968,-2.78125 -0.16016,-4.91406 0,0 0.11328,-2.42188 0.69922,-5.14063 0.1875,2.10157 2.55859,3.5586 3.875,4.80469 -0.17578,-0.58203 -0.44531,-1.45312 -0.73047,-2.02344 0.80859,1.10938 1.98047,2.07422 2.70313,2.75391 0.85546,0.72656 2.91015,2.10156 4.01953,2.10156 0.0781,-0.85156 -0.85547,-1.97656 -1.25,-2.76562 1.45312,0.53515 2.91015,1.1875 4.41406,1.32812 l 0.0156,0 c -0.3164,1.58203 -0.3789,2.75 -0.3789,2.75 0.80469,1.73828 0.42578,1.82031 0.10937,4.03516 -0.1914,1.35937 0.26953,2.43359 0.55469,3.9375 0.41016,1.91406 0.26563,3.17969 0.47266,4.55469 0.0312,0.3164 0.0937,0.63281 0.1914,0.98046 -2.97265,1.35938 -6.12109,2.35547 -6.97656,2.38672 -0.125,0.0156 -0.31641,0 -0.50781,-0.0156 -0.0781,0 -0.15625,-0.0156 -0.23438,-0.0312 -0.0156,0 -0.0312,0 -0.0625,-0.0156 -0.10937,0 -0.22265,-0.0156 -0.34765,-0.0469 -0.8086,-0.14063 -1.80469,-0.42578 -2.69141,-0.8086 -0.0781,-0.0273 -0.16016,-0.0625 -0.23437,-0.0937 -0.12891,-0.0625 -0.26954,-0.125 -0.39454,-0.17187 -0.44531,-0.23828 -0.82421,-0.49219 -1.10937,-0.76172"
           id="path4272"
           inkscape:connector-curvature="0" />
        <path
           style="fill:#d6d6d6;fill-opacity:1;fill-rule:nonzero;stroke:none"
           d="m 219.60156,510.28125 c -0.63281,0.92969 -1.16797,1.91016 -1.59375,3.00391 -0.0156,0.0469 -0.0312,0.0937 -0.0469,0.14453 -0.25391,0.86718 -0.53907,1.70703 -0.85547,2.52734 -0.0469,0.12891 -0.0977,0.25391 -0.14063,0.38281 -0.21093,0.55078 -0.44531,1.1211 -0.69922,1.67578 l -0.78906,-2.23046 -1.3125,-3.59375 -0.1289,-0.36329 c 1.77343,-3.09765 3.95703,-6.27734 5.80859,-9.35937 2.11719,-3.5625 4.74219,-7.76563 5.92969,-11.72266 0.53906,-1.45312 -0.25391,-4.74218 0.39453,-5.80468 0.39453,-0.66407 1.97656,-1.1836 2.64062,-1.70704 1.3125,-1.18359 5.14063,-5.80468 4.7461,-7.78125 -0.36719,-1.80078 -4.03516,-4.3789 -5.86719,-5.83593 0.45703,-0.88672 0.91797,-1.76953 1.375,-2.65625 0.0156,-0.0312 0.0312,-0.0625 0.0625,-0.0937 0.0469,-0.0781 0.0977,-0.16016 0.14062,-0.23828 1.04688,1.6289 2.53125,3.24218 3.3711,4.08203 0.98047,0.91797 2.10156,1.9414 3.33594,2.625 0.77343,0.4414 1.58203,0.74218 2.43359,0.78906 -0.0937,1.05859 -0.14063,2.10547 -0.14063,3.14844 -0.34765,0.74218 -0.67968,1.51562 -1.05859,2.26172 -0.47656,0.94921 -1.01172,1.89843 -1.67969,2.76562 -1.30859,1.72656 -3.55468,3.16406 -4.47265,5.01563 l -0.17578,-0.0156 c -0.17188,0.34766 -0.28125,0.67969 -0.48829,1.07422 -1.23437,3.43359 -2.3125,7.33984 -3.79687,10.92969 -0.91797,2.19922 -1.97656,4.26953 -3.32031,6.07422 -0.82422,1.08984 -1.66016,2.11718 -2.45313,3.16015 -0.42578,0.57031 -0.83594,1.14063 -1.21875,1.74219"
           id="path4302"
           inkscape:connector-curvature="0" />
        <path
           style="fill:#dadada;fill-opacity:1;fill-rule:nonzero;stroke:none"
           d="m 220.41016,483.94531 c 0,-0.0312 0,-0.0469 0,-0.0625 0,0.0156 0,0.0312 -0.0156,0.0625 z m 13.14453,-8.49219 c 0.39453,1.97657 -3.4336,6.59766 -4.7461,7.78125 -0.66406,0.52344 -2.24609,1.04297 -2.64062,1.70704 -0.64844,1.0625 0.14453,4.35156 -0.39453,5.80468 -1.1875,3.95703 -3.8125,8.16016 -5.92969,11.72266 -1.85156,3.08203 -4.03516,6.26172 -5.80859,9.35937 l -0.0312,-0.0781 -4.41016,-2.51563 c 0.67578,-1.66015 1.16797,-3.3789 1.57812,-5.10546 0.7461,-2.89454 1.33204,-5.80469 2.48438,-8.51172 1.64453,-4.1875 4.03125,-8.60157 6.66016,-12.58985 0.55078,-0.69531 1.08984,-1.39062 1.59375,-2.11718 l -0.10938,-0.0469 c 0.39453,-0.58594 0.82422,-1.15625 1.23438,-1.71094 1.48828,-3.20703 3.03906,-6.38672 4.65234,-9.53515 1.83203,1.45703 5.5,4.03515 5.86719,5.83593"
           id="path4304"
           inkscape:connector-curvature="0" />
      </g>
      <path
         inkscape:connector-curvature="0"
         id="path4306"
         d="m 232.85547,525.52734 -0.0469,0.14063 c -0.4414,-0.125 -0.91406,-0.28516 -1.40625,-0.45703 -0.17578,-0.0469 -0.34765,-0.0977 -0.52343,-0.16016 -0.23438,-0.0625 -0.45704,-0.10937 -0.69532,-0.17187 -0.14453,-0.0312 -0.30078,-0.0469 -0.4414,-0.0781 -0.11328,-0.0312 -0.20703,-0.0508 -0.31641,-0.0508 -0.0664,-0.0156 -0.11328,-0.0156 -0.17578,-0.0156 -0.10938,-0.0156 -0.22266,-0.0312 -0.33203,-0.0156 1.02734,-0.47266 1.91406,-1.01172 3.14844,-1.02734 l 0,0.0156 c 0.16015,0.61719 0.47265,1.37891 0.78906,1.82031"
         style="fill:#a2a2a2;fill-opacity:1;fill-rule:nonzero;stroke:none" />
      <path
         inkscape:connector-curvature="0"
         id="path4308"
         d="m 229.15625,530.87109 c -0.0781,0.0625 -0.16016,0.12891 -0.22266,0.20703 0.0625,-0.0625 0.12891,-0.1289 0.19141,-0.20703 0.0156,0 0.0156,0 0.0312,0"
         style="fill:#646464;fill-opacity:1;fill-rule:nonzero;stroke:none" />
      <path
         inkscape:connector-curvature="0"
         id="path4310"
         d="m 228.93359,531.07812 c -0.74218,0.75782 -1.5,1.48438 -2.24609,2.19532 -0.53516,0.49609 -0.96484,1.17187 -1.39063,1.72656 -0.0156,-0.0156 -0.0312,-0.0156 -0.0469,-0.0312 0.1875,-0.23828 0.26953,-0.41016 0.26953,-0.41016 0,-0.0312 0,-0.1289 -0.0156,-0.28515 0.39453,-0.30078 0.77343,-0.66797 1.13671,-1.01172 0.75782,-0.7461 1.48829,-1.51953 2.29297,-2.1836"
         style="fill:#ededed;fill-opacity:1;fill-rule:nonzero;stroke:none" />
      <path
         inkscape:connector-curvature="0"
         id="path4312"
         d="m 226.92578,531.47266 c 0.26953,-0.0937 0.50781,-0.17579 0.74219,-0.23829 -0.41016,0.17579 -0.82031,0.28516 -1.21875,0.41407 0.16015,-0.0625 0.32031,-0.11328 0.47656,-0.17578"
         style="fill:#fafafa;fill-opacity:1;fill-rule:nonzero;stroke:none" />
      <path
         inkscape:connector-curvature="0"
         id="path4314"
         d="m 214.03516,511.82812 0.1289,0.36329 1.3125,3.59375 0.78906,2.23046 0.19141,0.51954 4.34766,12.03515 0.33203,0.9336 3.17969,8.76171 2.10546,5.88672 -2.625,1.46875 -12.6875,-35.10937 -44.4414,-25.21094 c -0.67969,-1.69531 2.42187,-1.04297 2.42187,-1.04297 l 36.67578,20.82813 2.00782,1.12109 1.82031,1.02734 4.41016,2.51563 0.0312,0.0781"
         style="fill:#acacac;fill-opacity:1;fill-rule:nonzero;stroke:none" />
      <path
         inkscape:connector-curvature="0"
         style="fill:#646464;fill-opacity:1;fill-rule:nonzero;stroke:none;stroke-width:1.33333337"
         d="m 289.47461,687.94336 c -0.0626,0.17188 -0.13017,0.3379 -0.1875,0.50976 -0.28124,0.73438 -0.59505,1.49481 -0.93359,2.23438 l 0.25586,0.69336 5.79687,16.04687 c 0.52604,-0.47916 1.09961,-0.94922 1.58398,-1.37109 0.25,-0.27084 0.52475,-0.54688 0.80079,-0.84375 l 0.40234,-0.40039 c 0.56771,-1.07291 1.26562,-2.51108 1.8125,-3.22461 0.42187,-0.48439 0.90624,-0.92578 1.32812,-1.41016 l 0,-0.44335 c 0.80208,-0.91146 1.59831,-1.79754 2.44727,-2.66211 -3.33333,-2.125 -7.06705,-4.78582 -10.58789,-7.33789 -0.0208,0.0208 -0.0222,0.0671 -0.043,0.0879 -0.73959,-0.5521 -2.06641,-1.13932 -2.67578,-1.87891 z"
         transform="scale(0.75)"
         id="path4316" />
      <path
         inkscape:connector-curvature="0"
         id="path4320"
         d="m 211.10937,512.51172 12.6875,35.10937 -11.6914,-6.9414 -32.19922,-19.10547 0,-0.0156 -13.71094,-34.54297 0.47266,0.28516 44.4414,25.21094"
         style="fill:#cfcfcf;fill-opacity:1;fill-rule:nonzero;stroke:none" />
      <path
         inkscape:connector-curvature="0"
         id="path4322"
         d="m 222.59375,528.91016 c 0.0937,-0.0937 0.20703,-0.20704 0.30078,-0.30079 -0.12891,0.25391 -0.26953,0.47657 -0.36719,0.64844 0.0195,-0.0937 0.0508,-0.21875 0.0664,-0.34765"
         style="fill:#fafafa;fill-opacity:1;fill-rule:nonzero;stroke:none" />
      <path
         inkscape:connector-curvature="0"
         id="path4324"
         d="m 220.41016,483.88281 c 0,0.0156 0,0.0312 0,0.0625 l -0.0156,0 c 0.0156,-0.0312 0.0156,-0.0469 0.0156,-0.0625"
         style="fill:#c4c4c4;fill-opacity:1;fill-rule:nonzero;stroke:none" />
      <path
         inkscape:connector-curvature="0"
         id="path4328"
         d="m 211.17187,504.12891 c -0.41015,1.72656 -0.90234,3.44531 -1.57812,5.10546 l -1.82031,-1.02734 -2.00782,-1.12109 c 1.04297,-0.57032 1.97657,-1.09375 2.8125,-1.55078 1.07813,-0.58594 1.96094,-1.07422 2.59375,-1.40625"
         style="fill:#707070;fill-opacity:1;fill-rule:nonzero;stroke:none" />
      <path
         inkscape:connector-curvature="0"
         id="path4330"
         d="m 203.07812,622.26953 c -0.0156,0 -0.0156,0.0156 -0.0352,0.0156 -10.21485,5.85156 -15.48047,11.57812 -24.92578,14.48828 -2.00782,0 -5.83594,-2.10157 -7.6836,-2.89453 0,-0.0469 0,-0.0781 -0.0195,-0.125 0.20703,-0.91797 0.28516,-2.23047 0.47656,-3.51172 0.14454,-1.04688 0.37891,-2.08985 0.79297,-2.87891 0.41016,-0.79297 0.9961,-1.32812 1.87891,-1.40625 1.63281,-0.91797 3.07031,-2.07422 4.39844,-3.33984 2.73437,0.0781 6.5625,2.51562 7.14843,5.23828 2.29297,-1.10938 4.77735,-1.77344 7.05469,-2.94531 2.00781,-0.96485 4.16016,-2.38672 5.85156,-3.82422 1.375,-0.19141 2.67188,-0.46094 3.6836,-0.83985 l 0.0625,0.17578 c 0.52344,0.53516 0.79297,1.32813 1.3164,1.84766"
         style="fill:#b5b5b5;fill-opacity:1;fill-rule:nonzero;stroke:none" />
      <path
         inkscape:connector-curvature="0"
         id="path4332"
         d="m 203.04297,622.28516 c 0,0.82421 0.0508,1.5664 -0.10938,2.35937 l -0.0312,0 c -4.08203,3.30078 -8.55468,6.07031 -12.84375,9.08984 -3.22656,2.2461 -7.05468,4.6211 -10.94531,5.60157 -2.70312,0.71093 -5.55078,-0.33203 -7.82812,-2.00782 l 0.0664,-0.0977 c -0.42969,-0.91797 -0.82422,-2.30469 -0.91797,-3.35156 1.84766,0.79296 5.67578,2.89453 7.6836,2.89453 9.44531,-2.91016 14.71093,-8.63672 24.92578,-14.48828"
         style="fill:#646464;fill-opacity:1;fill-rule:nonzero;stroke:none" />
      <path
         inkscape:connector-curvature="0"
         id="path4334"
         d="m 190.69141,620.95703 c 1.86718,0.47656 4.74609,0.47656 7.32421,0.12891 -1.6914,1.4375 -3.84375,2.85937 -5.85156,3.82422 -2.27734,1.17187 -4.76172,1.83593 -7.05469,2.94531 -0.58593,-2.72266 -4.41406,-5.16016 -7.14843,-5.23828 1.47265,-1.42188 2.8164,-2.97266 4.16015,-4.49219 0.45703,-0.51953 0.9336,-1.04297 1.39063,-1.54688 l 0.0156,0 c 2.42188,1.01172 4.46094,3.76172 7.16407,4.37891"
         style="fill:#ededed;fill-opacity:1;fill-rule:nonzero;stroke:none" />
      <path
         inkscape:connector-curvature="0"
         id="path4336"
         d="m 182.51562,617.16016 c -0.125,0.33593 -0.26953,0.64843 -0.39453,0.96484 -1.34375,1.51953 -2.6875,3.07031 -4.16015,4.49219 -1.32813,1.26562 -2.76563,2.42187 -4.39844,3.33984 -0.88281,0.0781 -1.46875,0.61328 -1.87891,1.40625 -0.83984,-0.48828 -1.82031,-1.25 -2.54687,-1.91406 0.22265,-1.1836 0.86719,-2.19922 1.78515,-2.65625 4.47657,-2.625 8.06641,-1.70703 11.5,-5.66016 l 0.0937,0.0274"
         style="fill:#989898;fill-opacity:1;fill-rule:nonzero;stroke:none" />
      <path
         inkscape:connector-curvature="0"
         id="path4338"
         d="m 171.68359,627.36328 c -0.41406,0.78906 -0.64843,1.83203 -0.79297,2.87891 -1.61328,-1.34375 -2.07031,-3.22657 -1.7539,-4.79297 0.72656,0.66406 1.70703,1.42578 2.54687,1.91406"
         style="fill:#646464;fill-opacity:1;fill-rule:nonzero;stroke:none" />
    </g>
  </g>
  <g
     id="g8976"
     transform="matrix(1.4355549,0,0,1.4355549,-191.47362,-530.9828)">
    <g
       inkscape:transform-center-y="44.415151"
       inkscape:transform-center-x="-19.246563"
       transform="matrix(1.7026698,0.98303687,0,-2.1534078,306.17749,434.84009)"
       clip-path="none"
       id="g14">
      <g
         id="g8895"
         transform="translate(37.978434,20.772228)">
        <path
           style="fill:#ffcc00;fill-opacity:1;fill-rule:nonzero;stroke:none;stroke-width:3.66510916"
           d="m 374.70508,-1.1464844 c -0.46094,-0.0047 -0.9189,0.00107 -1.37305,0.015625 -4.26994,0.13683724 -8.22529,1.14044589 -11.80078,2.9140625 l -0.0117,-0.017578 -1.38476,0.7402344 c -0.0129,0.00737 -0.0262,0.01409 -0.0391,0.021484 l -9.65234,5.1621093 2.82226,0.3320313 c -7.09593,7.6800719 -11.3164,19.9388749 -11.3164,35.8886719 0,38.699394 24.80522,84.392214 55.4043,102.058594 9.93404,5.73543 19.24863,7.79002 27.31054,6.6543 l -0.77929,2.32226 10.16211,-5.38281 c 0.20727,-0.11233 0.42051,-0.2123 0.625,-0.33008 l 0.043,-0.0234 -0.004,-0.002 c 11.08773,-6.41137 18.04492,-20.82955 18.04492,-41.32226 0,-38.699405 -24.80327,-84.39026 -55.40234,-102.0566453 -8.06812,-4.6581288 -15.73435,-6.9040404 -22.64844,-6.9746094 z"
           id="path8897"
           transform="matrix(0.30683933,0.14007304,0,-0.24261362,-138.16557,-36.620226)"
           inkscape:connector-curvature="0" />
      </g>
      <g
         style="opacity:0.19200003;fill:#000000"
         transform="translate(37.978434,20.772228)"
         id="g8899" />
      <g
         transform="translate(36,19)"
         id="g20">
        <path
           inkscape:connector-curvature="0"
           id="path22"
           style="fill:#ffcc00;fill-opacity:1;fill-rule:nonzero;stroke:none"
           d="m 0,0 c 0,-9.389 -7.611,-17 -17,-17 -9.389,0 -17,7.611 -17,17 0,9.389 7.611,17 17,17 C -7.611,17 0,9.389 0,0" />
      </g>
      <g
         transform="translate(23,10)"
         id="g24">
        <path
           inkscape:connector-curvature="0"
           id="path26"
           style="fill:#664500;fill-opacity:1;fill-rule:nonzero;stroke:none"
           d="m 0,0 c 0,-2.763 -1.791,-3 -4,-3 -2.21,0 -4,0.237 -4,3 0,2.761 1.79,6 4,6 2.209,0 4,-3.239 4,-6" />
      </g>
      <g
         transform="translate(31,21.9995)"
         id="g28">
        <path
           inkscape:connector-curvature="0"
           id="path30"
           style="fill:#664500;fill-opacity:1;fill-rule:nonzero;stroke:none"
           d="M 0,0 C -0.124,0 -0.25,0.023 -0.371,0.072 -5.6,2.163 -7.743,5.312 -7.832,5.446 -8.139,5.905 -8.015,6.526 -7.555,6.833 -7.096,7.139 -6.477,7.016 -6.17,6.559 -6.151,6.531 -4.24,3.773 0.371,1.929 0.884,1.724 1.134,1.142 0.929,0.629 0.773,0.238 0.396,0 0,0" />
      </g>
      <g
         transform="translate(7.0005,21.9995)"
         id="g32">
        <path
           inkscape:connector-curvature="0"
           id="path34"
           style="fill:#664500;fill-opacity:1;fill-rule:nonzero;stroke:none"
           d="m 0,0 c -0.397,0 -0.772,0.238 -0.929,0.629 -0.205,0.513 0.044,1.095 0.557,1.3 C 4.24,3.773 6.151,6.531 6.17,6.559 6.478,7.015 7.099,7.136 7.557,6.829 8.013,6.521 8.137,5.904 7.832,5.446 7.743,5.312 5.599,2.163 0.371,0.072 0.249,0.023 0.124,0 0,0" />
      </g>
      <g
         transform="translate(9,2)"
         id="g36">
        <path
           inkscape:connector-curvature="0"
           id="path38"
           style="fill:#5dadec;fill-opacity:1;fill-rule:nonzero;stroke:none"
           d="m 0,0 4,0.046 0,18.953 -4,0 L 0,0 Z M 16,19 20,19 20,0 16,0.046 16,19 Z" />
      </g>
      <g
         transform="translate(15.999,19)"
         id="g40">
        <path
           inkscape:connector-curvature="0"
           id="path42"
           style="fill:#664500;fill-opacity:1;fill-rule:nonzero;stroke:none"
           d="m 0,0 c -0.15,0 -0.303,0.034 -0.446,0.105 -3.512,1.757 -7.071,0.019 -7.106,0 -0.495,-0.248 -1.094,-0.046 -1.342,0.448 -0.247,0.494 -0.046,1.095 0.448,1.342 0.182,0.089 4.498,2.196 8.894,0 C 0.942,1.648 1.143,1.047 0.896,0.553 0.72,0.202 0.367,0 0,0" />
      </g>
      <g
         transform="translate(29.999,19)"
         id="g44">
        <path
           inkscape:connector-curvature="0"
           id="path46"
           style="fill:#664500;fill-opacity:1;fill-rule:nonzero;stroke:none"
           d="m 0,0 c -0.15,0 -0.303,0.034 -0.446,0.105 -3.513,1.756 -7.071,0.019 -7.106,0 -0.494,-0.247 -1.094,-0.047 -1.342,0.448 -0.247,0.494 -0.046,1.095 0.448,1.342 0.181,0.089 4.501,2.196 8.894,0 C 0.942,1.648 1.143,1.047 0.895,0.553 0.72,0.202 0.367,0 0,0" />
      </g>
      <g
         transform="translate(37,3)"
         id="g48">
        <path
           inkscape:connector-curvature="0"
           id="path50"
           style="fill:#5dadec;fill-opacity:1;fill-rule:nonzero;stroke:none"
           d="m 0,0 c 0,-1.104 -8.059,-2 -18,-2 -9.941,0 -18,0.896 -18,2 0,1.104 8.059,2 18,2 C -8.059,2 0,1.104 0,0" />
      </g>
      <g
         transform="translate(22,10)"
         id="g52">
        <path
           inkscape:connector-curvature="0"
           id="path54"
           style="fill:#e75a70;fill-opacity:1;fill-rule:nonzero;stroke:none"
           d="m 0,0 c 0,-1.657 -1.343,-2 -3,-2 -1.657,0 -3,0.343 -3,2 0,1.657 1.343,2 3,2 1.657,0 3,-0.343 3,-2" />
      </g>
    </g>
    <path
       sodipodi:nodetypes="cccccssccccccsscc"
       inkscape:connector-curvature="0"
       id="path8919"
       d="m 296.37111,395.74726 c -0.64349,-0.0273 -1.23235,0.10604 -1.74865,0.38324 l 0,-0.008 -2.50415,1.4373 0.0209,0 c -1.23175,0.78171 -2.00204,2.43266 -2.00204,4.76115 0,4.53658 2.90813,9.89317 6.49514,11.96413 1.71945,0.99272 3.27806,1.0425 4.43865,0.33193 l 0,0.006 2.20362,-1.26452 c 0.0203,-0.0117 0.0406,-0.0234 0.0607,-0.0356 l 0.045,-0.0251 -0.005,-0.001 c 1.24148,-0.77734 2.0188,-2.43265 2.0188,-4.77163 0,-4.53658 -2.90814,-9.89317 -6.49515,-11.96413 -0.89675,-0.51774 -1.75066,-0.78063 -2.52769,-0.8136 z"
       style="fill:#ffcc00;fill-opacity:1;fill-rule:nonzero;stroke:none;stroke-width:0.42964646" />
    <path
       sodipodi:nodetypes="cccccssccccccsscc"
       style="fill:#ffcc00;fill-opacity:1;fill-rule:nonzero;stroke:none;stroke-width:0.25189117"
       d="m 284.08447,408.83677 c -0.37726,-0.016 -0.72249,0.0622 -1.02519,0.22468 l 0,-0.005 -2.89578,1.56047 0.0123,0 c -0.72215,0.4583 -1.17375,1.42621 -1.17375,2.79135 0,2.65968 1.70497,5.80012 3.80794,7.01427 1.00807,0.58201 1.92185,0.6112 2.60227,0.19461 l 0,0.004 2.71959,-1.45917 c 0.0119,-0.007 0.0238,-0.0137 0.0356,-0.0209 l 0.0264,-0.0147 -0.003,-5.8e-4 c 0.72785,-0.45574 1.18358,-1.42621 1.18358,-2.79749 0,-2.65969 -1.70497,-5.80012 -3.80795,-7.01428 -0.52574,-0.30354 -1.02637,-0.45766 -1.48192,-0.47699 z"
       id="path8974"
       inkscape:connector-curvature="0" />
  </g>
  <g
     id="g9008"
     transform="matrix(0.8662414,-0.50012471,0,1,-57.398475,-263.85148)">
    <path
       style="opacity:1;fill:#0000ff;fill-opacity:1;stroke:none;stroke-width:2.36390305;stroke-linecap:round;stroke-linejoin:round;stroke-miterlimit:4;stroke-dasharray:none"
       d="m 257.51953,479.99219 c -2.36636,0.0537 -5.0219,0.85218 -7.83203,2.47461 l -107.92969,62.3125 c -9.99158,5.76864 -18.03515,19.69802 -18.03515,31.23242 l 0,71.90039 c 0,5.0268 1.52724,8.74421 4.07812,10.86133 l 0.004,0.002 c 0.57467,0.47649 1.20233,0.87082 1.875,1.18164 l 6.67969,4.20899 0.20312,-3.72266 c 1.64431,-0.38301 3.38732,-1.08115 5.19531,-2.125 l 102.66211,-59.27148 23.30274,13.44726 0,-47.7207 0,-71.90039 c 0,-1.66534 -0.17516,-3.17961 -0.49219,-4.54688 l 2.11523,-2.83008 -6.57226,-4.11914 -0.002,0.0137 c -1.49631,-0.95518 -3.26907,-1.44346 -5.25195,-1.39843 z"
       transform="matrix(0.86580946,0.43301271,0,0.75,-40.858726,-111.77853)"
       id="path9018"
       inkscape:connector-curvature="0" />
    <path
       style="opacity:1;fill:#0000ff;fill-opacity:1;stroke:none;stroke-width:1.90489686;stroke-linecap:round;stroke-linejoin:round;stroke-miterlimit:4;stroke-dasharray:none"
       d="m 187.34796,365.13057 c -2.04882,-0.98439 -4.34801,-1.53542 -6.78105,-1.53541 l -93.446549,-5.6e-4 c -8.650805,0 -15.615012,6.96406 -15.615012,15.61486 l 0,53.9253 c 0,8.6508 6.964207,15.61414 15.615012,15.61414 l 88.885829,3.9e-4 20.17572,20.17582 0,-35.79053 0,-53.92529 c 0,-6.21776 -3.59808,-11.56313 -8.83395,-14.07872 z"
       id="rect9003"
       inkscape:connector-curvature="0" />
    <path
       inkscape:connector-curvature="0"
       style="fill:#b2b2e6;fill-opacity:1;stroke-width:2.42908072"
       d="m 135.42151,380.56018 -29.14897,53.43977 58.29795,0 -29.14898,-53.43977 z"
       id="path9033" />
    <g
       id="g9046">
      <path
         inkscape:connector-curvature="0"
         id="path9040"
         transform="matrix(0.86580946,0.43301271,0,0.75,-39.886532,-111.38588)"
         d="m 201.72852,541.04883 -31.29883,84.3125 62.59765,-36.14063 -31.29882,-48.17187 z"
         style="fill:#ffffff;fill-opacity:1;stroke-width:3.014395" />
      <path
         inkscape:connector-curvature="0"
         id="path9037"
         transform="matrix(0.86580946,0.43301271,0,0.75,-39.886532,-111.38588)"
         d="m 200.33594,590.7832 c -0.41952,0.0373 -0.87933,0.18934 -1.36328,0.46875 -1.93583,1.11766 -3.50782,3.83948 -3.50782,6.07422 0,1.03214 0.34505,1.76517 0.89649,2.16211 l -0.01,0.0156 0.0977,0.0566 c 0.0314,0.0195 0.0631,0.0373 0.0957,0.0547 l 3.29102,1.89649 5.00976,-8.53906 -3.39453,-1.96485 -0.0156,-0.01 -0.002,0.004 c -0.31406,-0.17665 -0.68513,-0.25538 -1.09765,-0.21875 z"
         style="opacity:1;fill:#b2b2e6;fill-opacity:1;stroke:none;stroke-width:2;stroke-linecap:round;stroke-linejoin:round;stroke-miterlimit:4;stroke-dasharray:none" />
      <path
         sodipodi:nodetypes="ccccccc"
         inkscape:connector-curvature="0"
         id="path9027"
         d="m 137.85059,399.99282 -2.83394,-2.83464 -4.86685,-0.009 0,17.00787 2.83394,2.83465 0,-17.00788 z"
         style="opacity:1;fill:#b2b2e6;fill-opacity:1;stroke:none;stroke-width:1.61165392;stroke-linecap:round;stroke-linejoin:round;stroke-miterlimit:4;stroke-dasharray:none" />
    </g>
    <path
       inkscape:connector-curvature="0"
       style="fill:#0000ff;fill-opacity:1;stroke-width:2.42908072"
       d="m 132.99244,399.99282 4.85815,0 0,17.00357 -4.85815,0 0,-17.00357 z"
       id="path9031" />
    <path
       inkscape:connector-curvature="0"
       style="fill:#0000ff;fill-opacity:1;stroke-width:2.42908072"
       d="m 135.42151,427.31999 c -1.67606,0 -3.03635,-1.36031 -3.03635,-3.03636 0,-1.67606 1.36029,-3.03635 3.03635,-3.03635 1.67606,0 3.03636,1.36029 3.03636,3.03635 0,1.67605 -1.3603,3.03636 -3.03636,3.03636 z"
       id="path8841" />
  </g>
</svg>
